<?xml version="1.0" encoding="utf-8"?>
<!-- Generator: Adobe Illustrator 27.8.1, SVG Export Plug-In . SVG Version: 6.00 Build 0)  -->
<svg version="1.1" id="Layer_2_00000062876865427624004400000013401836971401140640_"
	 xmlns="http://www.w3.org/2000/svg" xmlns:xlink="http://www.w3.org/1999/xlink" x="0px" y="0px" viewBox="0 0 178.5 42.5"
	 style="enable-background:new 0 0 178.5 42.5;" xml:space="preserve">
<style type="text/css">
	.st0{fill:#FFFFFF;}
</style>
<g id="Layer_1-2">
	<path class="st0" d="M74.6,28c0.3-0.2,0.6-0.3,0.9-0.5c-0.2,0.3-0.2,0.5-0.9,1.2V28z"/>
	<path class="st0" d="M178.3,29.8v0.8c0,6.1-4.7,11.7-17.4,11.7c-11.3,0-16.4-4-16.4-10.5c0-2.1,0.1-3.4,0.3-4.5l12.2,0.4
		c-0.2,0.8-0.3,1.8-0.3,2.7c0,1.8,1.2,2.7,3.3,2.7s3.2-0.7,3.2-2.2v-0.3c0-1.1-0.8-2.1-5.3-4.7c-1.1-0.6-2.3-1.3-3.8-2.1
		c-6.7-3.6-9.4-6.4-9.4-12v-0.8c0-5.5,5.2-11,16.9-11s15.8,4.7,15.8,10.5c0,1.8-0.1,2.8-0.3,4.1l-11.5-0.5h-0.2
		c0.2-0.8,0.3-1.3,0.3-2.3c0-2.1-0.7-2.8-3-2.8c-2,0-2.9,0.9-2.9,2v0.3c0,1.7,1.2,2.4,5.7,4.6c0.3,0.1,0.6,0.3,0.9,0.5
		C174.8,20.6,178.3,23,178.3,29.8L178.3,29.8z"/>
	<path class="st0" d="M144.2,14c0,10.1-5.7,14.5-16.4,14.5h-4.7v13.1H108V23.6c1.8-2.3,2.7-5.5,2.7-9.6s-0.9-6.8-2.7-8.9V0.9h18.5
		C138.7,0.9,144.2,4.3,144.2,14L144.2,14z M131.2,15.8c0.1-0.4,0.1-0.7,0.1-1.1c0-0.8-0.2-1.5-0.5-2.2c-0.3-0.7-0.8-1.3-1.5-1.8
		c-0.1-0.1-0.2,0-0.2-0.1c-0.1,0-0.1-0.1-0.2-0.1c0,0,0-0.1-0.1-0.2c-0.8-0.4-1.6-0.7-2.6-0.7h0c-0.5,0-1,0.1-1.4,0.2
		c-0.7,0.2-1.2,0.5-1.8,0.9c-1.1,0.9-1.8,2.3-1.8,3.9v0.1c0,1.5,0.7,2.9,1.8,3.8c0.5,0.4,1.1,0.7,1.7,0.9c0.5,0.2,1,0.2,1.5,0.2
		c2,0,3.7-1.2,4.5-2.9c0-0.1,0-0.1,0.1-0.2c0.1-0.2,0.2-0.4,0.3-0.7C131.1,15.9,131.2,15.9,131.2,15.8L131.2,15.8z"/>
	<path class="st0" d="M108,5.2c1.8,2.1,2.7,4.9,2.7,8.9c0,4.1-0.9,7.2-2.7,9.6c-2.6,3.4-7.1,4.9-13.4,5v-0.8h0
		c0.3,0,0.7-0.3,0.8-0.7c0-0.2-0.2-1-0.4-1.1c-1-1-1.6-1.8-2.9-2.5c-1.3-0.8-2.8-1.1-4.2-1.4c-0.2,0-0.7,0.1-1.2-0.3
		c-0.2-0.2-0.9-1.3-0.8-1.5l-0.1-1.2c0.1-0.1,0.3-1.2,0.4-1.5l0,0c0.7-0.8,1.4-1.9,1.8-2.3c0.3-0.4,0.6-0.3,0.9,0
		c0.2,0.3,0.5,0.5,0.8,0.7c0.4,0.3,0.8,0.6,1.3,0.9c0.6,0.4,1.2,0.6,1.8,0.1c0.1-0.1,0.2-0.1,0.2,0c0.3,0.4,0.3,0,0.4-0.1
		c0.1-0.4,0-0.8-0.2-1.2c-0.1-0.1-0.2-0.2-0.1-0.3c1,0.4,1.9,0.3,2.9-0.1c0,0,0.1,0,0.1-0.1c0.7-0.3,1.2-0.9,1.8-1.3
		c0.2-0.1,0.2-0.4,0.1-0.6c-0.1-0.2-0.2-0.3-0.3-0.5c-0.7-0.9-1.4-1.7-2.2-2.6c-0.4-0.5-0.5-0.9-0.2-1.5c0.2-0.4,0.2-0.7,0.1-1.1
		c-0.1-0.9-0.5-1.6-1-2.3c-0.1,0-0.1-0.1-0.1-0.1l-0.6-0.5c-0.6-0.3-1.1-0.7-1.7-1.1C90.9,2.8,90,2.5,89,2.5V0.9h4
		C100.3,0.9,105.2,2.1,108,5.2L108,5.2z"/>
	<path class="st0" d="M94.6,27.8v0.8h-5v13.1H74.6V29c0.7-0.2,2.6-0.8,5.2-2.5c0,0.5-0.4,1-0.6,1.2c2-1,2.7-1.2,3.7-1.8
		c0.8,0.8,2.4,2.9,2.4,3.9c0.1,1,0.4,2.2,0.7,2.4s0.7,0.3,1,0.1c0.2-0.2,0.5-0.8,0.5-1.1c0.1-1.4,0.2-2.4-0.2-3.9
		c-0.2-0.6-0.4-1.2-0.7-1.8c0.4,0,1,0.1,1.7,0.1c1.3,0.1,3.4,0.4,4,1C93.2,27.2,94.2,27.7,94.6,27.8L94.6,27.8L94.6,27.8z"/>
	<path class="st0" d="M89,0.9v1.7c-1.2,0-2.3,0.4-3.3,1.2c-0.4,0.3-0.8,0.6-1.3,0.7c-0.9,0.2-1.8,0.6-2.6,1.1
		c-0.1,0-0.1,0.1-0.2,0.1C81.3,5.8,81,5.9,80.6,6c-0.3,0.2-0.6,0.4-0.8,0.4c-0.4,0.2-1.1,0.3-1.7,0.4c-0.2,0-0.3,0.1-0.5,0.1
		c-1.1,0.3-2.1,0.7-3,1V0.9H89L89,0.9z"/>
	<path class="st0" d="M73.2,8.7V28c0,0.2,0,0.5,0,0.7c-0.2,6.6-2.8,13.5-17,13.5c-12,0-16.3-4.9-17.6-10.3c1.3,0.2,2.6,0.5,3.8,0.6
		c0.1,0,0.3,0,0.4,0c3,0.1,6.2-1,8.4-3c-0.3,0.2-0.5,0.5-0.8,0.8c0,0,1.4,0.4,3,0.6c0.4,1.3,1.5,2.1,3.3,2.1c1.5,0,2.5-0.8,2.9-1.9
		c0.2-0.4,0.2-0.8,0.2-1.3V0.8h13.2L73.2,8.7L73.2,8.7z"/>
	<path class="st0" d="M53.3,0.8v15.5c-1.1,0-2.1-0.2-3.1-0.6c-0.6-0.2-1.3-0.4-1.8-0.6c-1.1-0.3-2.5,0-3.4,0
		c-2.2-0.2-4.2-0.6-5.7-1.2c-0.4-0.1-0.8-0.3-1.1-0.4V0.8H53.3L53.3,0.8z"/>
	<path class="st0" d="M38.2,21.7c1,0.1,1.9,0.1,2.9,0c-0.7,0.1-1.4,0.6-1.8,1.2c-0.4,0.7-0.6,1.6-1.1,2.2L38.2,21.7L38.2,21.7z"/>
	<path class="st0" d="M36.8,31.8v9.9H21.7V26.2h-6.4v15.4H0.2V0.9h15.1v15.2h6.4V0.9h15.1v12c-1-0.4-2-0.9-3.1-1.5
		c-2.5-1.3-2.5-1.5-3.4-1.8c-0.6-0.1-2.2-0.5-3.4,0.4c-0.2,0.1-0.8,0.6-0.8,1.3c0,0.8,0.8,1.6,2,1.9l0,0c-0.9,0-2.2-0.3-2.2-0.3
		s2.1,2.1,3.9,2.8c-1,0.2-2.5,0-2.5,0s1.6,1.5,3.1,2.1c0.8,0.4,1.9,0.9,2.8,0.8c-1,0.3-3.1-0.2-3.4-0.2c0.2,0.1,4.3,2,7,2.3V21
		c-0.5,0-1,0.1-1.5,0.1c0.5,0.2,1,0.3,1.5,0.4v4.4c-0.9,0.2-1.9,0.2-2.8,0.6c-1.4,0.6-2.4,2.1-3.9,2.5c-0.8,0.2-1.7,0.2-2.5,0.3
		c-0.8,0.1-1.7,0.6-1.8,1.5c-0.1,0.7,0.6,1.5,1.2,1.8c0.2,0.1,0.8,0.3,2,0.1c0.1,0,0.1,0,0.2,0c0,0-0.1,0.1-0.1,0.1
		c-0.5,0.6-0.6,1.2-0.5,1.6c0,0.2,0.1,0.3,0.2,0.4c0.2,0.1,0.4,0.1,0.6,0.1c2.2-0.5,3.8-2.2,6-2.8C35.9,31.8,36.3,31.8,36.8,31.8
		L36.8,31.8z"/>
</g>
</svg>
